HIERARCHY
ROOT Hips
{
	OFFSET -0.001795 -0.223333 0.028219
	CHANNELS 6 Xposition Yposition Zposition Zrotation Yrotation Xrotation 
	JOINT LeftUpLeg
	{
		OFFSET 0.069520 -0.091406 -0.006815
		CHANNELS 3 Zrotation Yrotation Xrotation
		JOINT LeftLeg
		{
			OFFSET 0.034277 -0.375199 -0.004496
			CHANNELS 3 Zrotation Yrotation Xrotation
			JOINT LeftFoot
			{
				OFFSET -0.013596 -0.397961 -0.043693
				CHANNELS 3 Zrotation Yrotation Xrotation
				JOINT LeftToe
				{
					OFFSET 0.026358 -0.055791 0.119288
					CHANNELS 3 Zrotation Yrotation Xrotation
					End Site
					{
						OFFSET 0.000000 0.000000 0.000000
					}
				}
			}
		}
	}
	JOINT RightUpLeg
	{
		OFFSET -0.067670 -0.090522 -0.004320
		CHANNELS 3 Zrotation Yrotation Xrotation
		JOINT RightLeg
		{
			OFFSET -0.038290 -0.382569 -0.008850
			CHANNELS 3 Zrotation Yrotation Xrotation
			JOINT RightFoot
			{
				OFFSET 0.015774 -0.398415 -0.042312
				CHANNELS 3 Zrotation Yrotation Xrotation
				JOINT RightToe
				{
					OFFSET -0.025372 -0.048144 0.123348
					CHANNELS 3 Zrotation Yrotation Xrotation
					End Site
					{
						OFFSET 0.000000 0.000000 0.000000
					}
				}
			}
		}
	}
	JOINT Spine
	{
		OFFSET -0.002533 0.108963 -0.026696
		CHANNELS 3 Zrotation Yrotation Xrotation
		JOINT Spine1
		{
			OFFSET 0.005487 0.135180 0.001092
			CHANNELS 3 Zrotation Yrotation Xrotation
			JOINT Spine2
			{
				OFFSET 0.001457 0.052922 0.025425
				CHANNELS 3 Zrotation Yrotation Xrotation
				JOINT Neck
				{
					OFFSET -0.002778 0.213870 -0.042857
					CHANNELS 3 Zrotation Yrotation Xrotation
					JOINT Head
					{
						OFFSET 0.005152 0.064970 0.051349
						CHANNELS 3 Zrotation Yrotation Xrotation
						End Site
						{
							OFFSET 0.000000 0.000000 0.000000
						}
					}
				}
				JOINT LeftShoulder
				{
					OFFSET 0.078845 0.121749 -0.034090
					CHANNELS 3 Zrotation Yrotation Xrotation
					JOINT LeftArm
					{
						OFFSET 0.090977 0.030469 -0.008868
						CHANNELS 3 Zrotation Yrotation Xrotation
						JOINT LeftForeArm
						{
							OFFSET 0.259612 -0.012772 -0.027456
							CHANNELS 3 Zrotation Yrotation Xrotation
							JOINT LeftHand
							{
								OFFSET 0.249234 0.008986 -0.001171
								CHANNELS 3 Zrotation Yrotation Xrotation
								End Site
								{
									OFFSET 0.000000 0.000000 0.000000
								}
							}
						}
					}
				}
				JOINT RightShoulder
				{
					OFFSET -0.081759 0.118833 -0.038615
					CHANNELS 3 Zrotation Yrotation Xrotation
					JOINT RightArm
					{
						OFFSET -0.096012 0.032551 -0.009143
						CHANNELS 3 Zrotation Yrotation Xrotation
						JOINT RightForeArm
						{
							OFFSET -0.253742 -0.013329 -0.021401
							CHANNELS 3 Zrotation Yrotation Xrotation
							JOINT RightHand
							{
								OFFSET -0.255298 0.007772 -0.005559
								CHANNELS 3 Zrotation Yrotation Xrotation
								End Site
								{
									OFFSET 0.000000 0.000000 0.000000
								}
							}
						}
					}
				}
			}
		}
	}
}
MOTION
Frames: 13
Frame Time: 0.050000
0.000000 0.943238 0.000000 -1.709954 -14.663891 2.602185 5.402901 0.304360 3.594966 -1.137634 0.270510 -4.686078 6.892196 14.551685 11.270013 0.000000 0.000000 0.000000 -4.877549 0.288166 0.253196 4.040792 -0.282188 -1.454083 -4.355271 -13.888952 10.028773 0.000000 0.000000 0.000000 0.722353 0.177277 -3.219937 2.566286 -0.425949 -21.435380 0.136898 8.890388 24.849768 8.932342 -2.736142 -30.750987 0.000000 0.000000 0.000000 -22.800939 -6.496153 2.697073 -58.665856 1.402703 -9.852354 -24.380247 -50.595608 15.240498 0.000000 0.000000 0.000000 -3.291644 22.005423 6.878754 30.846849 70.875961 14.241318 -123.076003 41.174947 -60.391828 0.000000 0.000000 0.000000 
-0.000063 0.941674 0.001506 -2.535698 -16.829929 3.066938 6.464448 0.379353 4.275991 -1.669086 0.348785 -5.376401 7.677631 15.873965 9.650302 0.000000 0.000000 0.000000 -3.730064 0.233125 0.123754 2.940321 -0.215797 -2.488934 -4.581814 -14.944184 11.903090 0.000000 0.000000 0.000000 0.432800 0.205821 -3.599070 4.009011 -0.721060 -22.590260 0.897728 9.822818 26.218859 10.072091 -3.197916 -32.315432 0.000000 0.000000 0.000000 -23.911596 -5.559512 2.379455 -56.218239 4.332312 -10.936207 -36.638456 -53.594785 23.172522 0.000000 0.000000 0.000000 -5.459717 22.753222 6.700182 22.291775 73.008694 8.738178 -123.614189 33.857423 -50.247497 0.000000 0.000000 0.000000 
0.000086 0.940632 0.002805 -1.670217 -15.858013 2.571231 6.178790 0.377961 4.463818 -2.276227 0.399288 -5.087396 7.595861 15.925627 7.807820 0.000000 0.000000 0.000000 -4.621764 0.262260 0.711283 2.847969 -0.221302 -2.720725 -4.229459 -13.993094 10.932094 0.000000 0.000000 0.000000 0.478649 0.167188 -3.038920 2.363851 -0.219002 -23.958793 1.378610 8.660534 26.869095 9.546099 -3.301919 -30.954231 0.000000 0.000000 0.000000 -24.193940 -4.223802 1.784431 -55.693752 5.310229 -11.381865 -35.622766 -53.520506 22.688699 0.000000 0.000000 0.000000 -5.417956 23.791731 6.979778 14.722374 71.679697 3.074120 -125.491639 31.554205 -48.923851 0.000000 0.000000 0.000000 
0.000242 0.940281 0.003807 -1.919377 -16.470058 2.803735 6.460752 0.386447 4.457770 -2.250711 0.397853 -5.013166 7.705410 16.003329 9.030340 0.000000 0.000000 0.000000 -4.253692 0.257407 0.367878 3.254722 -0.229353 -2.601464 -4.613781 -14.762667 11.212770 0.000000 0.000000 0.000000 0.330658 0.201033 -3.575120 2.884815 -0.348669 -23.852181 1.296257 8.590663 26.701527 10.040105 -3.627496 -30.823680 0.000000 0.000000 0.000000 -24.762626 -3.019292 1.174054 -56.021666 7.766310 -12.516427 -38.922338 -55.420752 25.673191 0.000000 0.000000 0.000000 -6.453601 24.354364 6.968094 5.491573 73.227660 -3.336850 -123.598364 27.985705 -42.018043 0.000000 0.000000 0.000000 
0.000528 0.940456 0.004337 -1.654243 -16.095039 2.384710 6.111417 0.384962 4.438097 -1.777726 0.333142 -4.427618 7.312180 15.347949 8.502591 0.000000 0.000000 0.000000 -4.716217 0.262507 0.935034 3.299217 -0.236609 -3.198631 -4.572199 -14.826464 11.857177 0.000000 0.000000 0.000000 0.468309 0.169405 -3.078068 2.118963 -0.190137 -23.589534 1.215395 8.661654 26.414265 10.216659 -3.630927 -31.068961 0.000000 0.000000 0.000000 -24.207567 -3.212324 1.171673 -56.499980 8.875251 -13.061169 -38.323261 -56.476929 25.757833 0.000000 0.000000 0.000000 -6.513308 23.925492 6.840773 2.786003 73.260926 -5.101557 -124.662262 27.502460 -42.061897 0.000000 0.000000 0.000000 
0.000956 0.940818 0.004317 -1.855807 -15.376778 2.360802 6.420389 0.371946 4.508778 -1.944439 0.351594 -4.574096 7.296015 15.354211 8.504678 0.000000 0.000000 0.000000 -4.569861 0.233021 1.138426 3.455978 -0.250114 -3.314226 -5.202347 -15.942546 12.382696 0.000000 0.000000 0.000000 0.400489 0.166235 -3.065694 1.848499 -0.083278 -24.028762 1.544278 8.491696 27.179971 9.947177 -3.375205 -31.692292 0.000000 0.000000 0.000000 -23.508286 -2.540661 0.709999 -57.005549 9.595947 -13.544907 -42.009352 -56.939594 28.303810 0.000000 0.000000 0.000000 -6.928532 23.337508 6.591554 0.443007 73.012080 -6.655382 -124.403778 25.936547 -39.224237 0.000000 0.000000 0.000000 
0.001560 0.941194 0.003793 -1.973951 -14.708897 2.438186 6.622798 0.333025 4.115799 -1.795782 0.324332 -4.176028 7.102397 15.041389 8.106028 0.000000 0.000000 0.000000 -4.439394 0.223388 0.964593 3.404142 -0.255292 -3.320842 -5.105463 -15.780793 12.515325 0.000000 0.000000 0.000000 0.495140 0.152848 -2.854631 1.591946 0.002524 -24.231090 1.683664 8.391121 27.321946 10.221476 -3.440843 -31.929388 0.000000 0.000000 0.000000 -22.936653 -1.901799 0.250805 -57.386953 10.634588 -14.104382 -43.542799 -56.684364 29.080356 0.000000 0.000000 0.000000 -6.830161 22.678670 6.426551 -0.039687 73.097632 -6.906000 -125.542878 25.757787 -39.646560 0.000000 0.000000 0.000000 
0.002301 0.941244 0.003060 -2.153422 -14.223904 2.610500 6.978404 0.295979 3.681727 -1.894846 0.330015 -4.041001 6.895989 14.674570 8.149302 0.000000 0.000000 0.000000 -4.387712 0.231615 0.615065 3.782057 -0.274179 -3.085470 -5.309357 -16.080179 12.465049 0.000000 0.000000 0.000000 0.447410 0.164616 -3.070273 1.458120 0.039259 -24.198610 1.943841 8.505703 27.557304 10.079757 -3.301528 -31.981707 0.000000 0.000000 0.000000 -22.250580 -1.349629 -0.175370 -57.910947 11.676095 -14.707077 -46.497017 -57.089831 31.131613 0.000000 0.000000 0.000000 -6.925508 22.038625 6.227866 0.672995 72.649701 -6.217785 -126.305712 25.833881 -40.178132 0.000000 0.000000 0.000000 
0.003170 0.941389 0.002382 -2.381707 -13.791204 2.653420 7.219244 0.282288 3.623037 -1.782744 0.315716 -3.997410 6.702144 14.352707 7.643577 0.000000 0.000000 0.000000 -4.269689 0.218873 0.605312 3.842478 -0.281858 -3.153537 -5.367118 -16.165454 12.532948 0.000000 0.000000 0.000000 0.274295 0.160929 -3.045021 1.554737 0.041504 -24.485692 2.218775 8.558201 27.728460 10.222137 -3.334367 -31.960972 0.000000 0.000000 0.000000 -21.765497 -0.884556 -0.517417 -58.254638 12.631037 -15.239432 -48.920012 -56.836059 32.473841 0.000000 0.000000 0.000000 -6.321166 21.631608 6.210470 3.256671 71.982532 -4.299938 -126.793639 26.736497 -41.893649 0.000000 0.000000 0.000000 
0.004112 0.941208 0.001826 -2.543515 -13.243707 2.529715 7.564883 0.274726 3.714918 -1.772937 0.314141 -4.049883 6.277872 13.602420 7.836093 0.000000 0.000000 0.000000 -4.168517 0.203469 0.636498 3.909678 -0.291163 -3.140253 -5.504091 -16.378697 12.637861 0.000000 0.000000 0.000000 0.221586 0.162475 -3.100279 1.531324 0.042976 -24.306014 2.281335 8.447225 27.760614 10.293399 -3.379128 -31.683688 0.000000 0.000000 0.000000 -21.192565 -0.449808 -0.808727 -58.831930 13.197325 -15.655166 -51.543174 -56.541361 33.963745 0.000000 0.000000 0.000000 -5.970334 21.336886 6.184884 6.471204 70.658890 -2.020628 -127.206087 27.668314 -43.682350 0.000000 0.000000 0.000000 
0.005144 0.941064 0.001302 -2.671805 -12.852558 2.485268 7.731458 0.263432 3.670301 -1.651000 0.297288 -3.916097 5.967100 13.054510 7.755843 0.000000 0.000000 0.000000 -4.053843 0.189688 0.666992 3.708614 -0.287208 -2.867114 -5.437919 -16.245526 12.637259 0.000000 0.000000 0.000000 0.062256 0.168100 -3.242449 1.653410 0.024798 -24.364944 2.184471 8.255116 27.779824 10.491030 -3.503513 -31.463540 0.000000 0.000000 0.000000 -20.846691 -0.380755 -0.846842 -58.871620 13.456816 -15.782399 -52.963287 -55.657638 34.276623 0.000000 0.000000 0.000000 -5.661570 21.092728 6.171642 9.487265 69.343705 -0.063823 -126.780159 28.547383 -44.740824 0.000000 0.000000 0.000000 
0.006185 0.940755 0.000719 -2.740508 -12.623765 2.460644 7.870549 0.256246 3.632231 -1.678785 0.301138 -3.988478 5.693883 12.565783 7.700163 0.000000 0.000000 0.000000 -4.241180 0.194688 0.765000 3.768186 -0.292502 -2.837395 -5.288959 -16.065976 13.050323 0.000000 0.000000 0.000000 -0.275485 0.187439 -3.675036 1.834317 -0.046923 -23.856098 2.085282 7.849308 27.587678 10.327262 -3.481645 -31.236875 0.000000 0.000000 0.000000 -21.151473 -0.041646 -1.003747 -58.534859 13.160093 -15.527685 -53.783923 -55.252734 34.586634 0.000000 0.000000 0.000000 -5.561923 21.185962 6.228855 12.256961 68.042891 1.546140 -126.255245 28.969551 -45.065583 0.000000 0.000000 0.000000 
0.007159 0.940840 -0.000071 -2.748917 -12.674122 2.280889 7.867160 0.269529 3.843659 -1.692448 0.304682 -4.068525 5.586293 12.380937 7.989323 0.000000 0.000000 0.000000 -4.306715 0.192866 0.867955 3.529931 -0.281319 -2.748546 -4.893795 -15.461785 13.240198 0.000000 0.000000 0.000000 -0.639471 0.182751 -3.684212 2.194983 -0.123548 -23.979574 1.973831 7.766855 27.791948 10.363994 -3.571784 -30.944245 0.000000 0.000000 0.000000 -21.368181 0.000879 -0.999812 -58.397100 12.678375 -15.288817 -53.890258 -54.734735 34.365647 0.000000 0.000000 0.000000 -5.614610 21.195873 6.222979 13.696279 66.999791 2.295039 -124.697367 29.699224 -44.992175 0.000000 0.000000 0.000000 
